<svg width="22" height="21" viewBox="0 0 22 21" fill="none" xmlns="http://www.w3.org/2000/svg">
<g id="Frame">
<path id="Vector" d="M13.9346 9.18774V5.25024C13.9346 4.38 13.5889 3.5454 12.9736 2.93005C12.3582 2.3147 11.5236 1.96899 10.6534 1.96899C9.78316 1.96899 8.94856 2.3147 8.3332 2.93005C7.71785 3.5454 7.37215 4.38 7.37215 5.25024V9.18774M17.3086 7.44387L18.4138 17.9439C18.475 18.5257 18.02 19.0315 17.4346 19.0315H3.87215C3.73408 19.0316 3.59753 19.0027 3.47135 18.9467C3.34518 18.8906 3.23222 18.8086 3.13979 18.7061C3.04737 18.6035 2.97756 18.4826 2.9349 18.3513C2.89223 18.22 2.87767 18.0812 2.89215 17.9439L3.99815 7.44387C4.02366 7.20198 4.13782 6.97811 4.31862 6.81541C4.49942 6.65271 4.73405 6.5627 4.97727 6.56274H16.3295C16.8335 6.56274 17.2561 6.94337 17.3086 7.44387ZM7.70027 9.18774C7.70027 9.27477 7.6657 9.35823 7.60417 9.41976C7.54263 9.4813 7.45917 9.51587 7.37215 9.51587C7.28512 9.51587 7.20166 9.4813 7.14013 9.41976C7.07859 9.35823 7.04402 9.27477 7.04402 9.18774C7.04402 9.10072 7.07859 9.01726 7.14013 8.95572C7.20166 8.89419 7.28512 8.85962 7.37215 8.85962C7.45917 8.85962 7.54263 8.89419 7.60417 8.95572C7.6657 9.01726 7.70027 9.10072 7.70027 9.18774ZM14.2628 9.18774C14.2628 9.27477 14.2282 9.35823 14.1667 9.41976C14.1051 9.4813 14.0217 9.51587 13.9346 9.51587C13.8476 9.51587 13.7642 9.4813 13.7026 9.41976C13.6411 9.35823 13.6065 9.27477 13.6065 9.18774C13.6065 9.10072 13.6411 9.01726 13.7026 8.95572C13.7642 8.89419 13.8476 8.85962 13.9346 8.85962C14.0217 8.85962 14.1051 8.89419 14.1667 8.95572C14.2282 9.01726 14.2628 9.10072 14.2628 9.18774Z" stroke="white" stroke-width="1.35" stroke-linecap="round" stroke-linejoin="round"/>
</g>
</svg>
