<svg xmlns="http://www.w3.org/2000/svg" viewBox="0 0 43.58442 44.97265"><defs><style>.cls-1{fill:#850bff;}.cls-2,.cls-4{fill:#ec831b;}.cls-3{fill:#161b35;}.cls-4{stroke:#161b35;stroke-miterlimit:10;stroke-width:1.17657px;}.cls-5{fill:#fff;}.cls-6{opacity:0.23;}</style></defs><title>FollowupTeam</title><g id="Layer_1" data-name="Layer 1"><path class="cls-1" d="M33.71064,1.19292H17.74571a9.2819,9.2819,0,0,0-9.28162,9.28162v24.0226a9.28152,9.28152,0,0,0,9.28162,9.28162H33.71064a9.28153,9.28153,0,0,0,9.28162-9.28162V10.47454A9.28191,9.28191,0,0,0,33.71064,1.19292Zm4.387,33.30422a4.39235,4.39235,0,0,1-4.387,4.38758H17.74571a4.39235,4.39235,0,0,1-4.387-4.38758V10.47454a4.39222,4.39222,0,0,1,4.387-4.387H33.71064a4.39223,4.39223,0,0,1,4.387,4.387Z"/><path class="cls-2" d="M32.59944,13.43875c.04012-.16054.44148-1.60537,1.00336-3.49168-1.88631.08028-3.41143.08028-3.61211.04014-.602-.1204-.92307-2.16725-.48159-2.28764.16057,0,1.68562-.2408,3.65222-.48159-1.12375-1.485-2.00671-2.689-2.12711-2.88967-.32108-.52176,1.88631-2.20739,2.28762-1.92645.1204.08029.84284,1.00336,1.806,2.24753C35.68979,2.64269,36.13121.957,36.21149.59584c.08029-.64213,6.38132,1.36454,5.57865,2.3679-.28091.32108-1.16387,1.68565-2.20739,3.37128,1.6054-.24082,2.84955-.44148,3.13045-.52176.64216-.16051.602,3.1706-.6421,3.49168a22.44469,22.44469,0,0,1-3.21074.40133c.64216.883,1.16386,1.64552,1.44483,2.087.36119.56187-1.00335,2.48829-1.96659,1.60534a26.82615,26.82615,0,0,1-1.88631-2.04682c-.84279,1.36454-1.48495,2.408-1.60534,2.56858C34.48575,14.4421,32.47905,13.88023,32.59944,13.43875Z"/><path class="cls-3" d="M34.2302,14.5872a3.723,3.723,0,0,1-1.41406-.3164c-.7002-.32618-.71436-.7295-.6582-.94532.04345-.17285.36572-1.332.82763-2.89843a29.44287,29.44287,0,0,1-3.08447.00683c-.81152-.16308-1.03418-1.53515-1.05127-2.0498-.02685-.80078.27881-1.05274.53955-1.124l.11963-.01562c.08154-.00488.40088-.05078.88232-.11817.5-.07031,1.16651-.16308,1.93262-.26171-.875-1.165-1.563-2.10645-1.68017-2.30176-.2461-.39942-.03565-.92285.6289-1.54981.16162-.15234,1.6001-1.48144,2.31006-.98437a10.93651,10.93651,0,0,1,1.34863,1.625C35.3635,2.0872,35.697.80986,35.76682.49638a.57485.57485,0,0,1,.48975-.45312c1.00928-.22657,5.22168,1.14843,5.91894,2.27148a.78134.78134,0,0,1-.02929.93359c-.2124.24219-.812,1.14649-1.65332,2.48731,1.55908-.24121,1.98437-.3291,2.09375-.36035.126-.03125.68847-.127.90381.71679.229.90333.05566,3.30274-1.30567,3.6543a16.42,16.42,0,0,1-2.4873.34473c.45654.64453.80029,1.15625.99218,1.457.39942.62207-.18017,1.62207-.75244,2.10352a1.37347,1.37347,0,0,1-1.90625.083,21.47112,21.47112,0,0,1-1.51709-1.61523c-.79882,1.293-1.19091,1.92578-1.30322,2.07519A1.13789,1.13789,0,0,1,34.2302,14.5872Zm-1.146-1.19922a2.2385,2.2385,0,0,0,1.41406.24512c.08008-.11328.67529-1.07715,1.30517-2.09766l.58887-.95312.40576.47266a25.66091,25.66091,0,0,0,1.84864,2.00781c.105.09863.251.1748.521.02148a1.56965,1.56965,0,0,0,.74024-1.07519c-.23243-.35742-.73731-1.10157-1.416-2.03516l-.47607-.6543.80713-.06738a23.25412,23.25412,0,0,0,3.123-.38574c.18946-.04883.36817-.27734.50049-.62988A3.8144,3.8144,0,0,0,42.60716,6.305c-.33252.06835-1.09473.20117-2.95655.48046l-.97314.14649.51806-.83692c.64112-1.03515,1.74268-2.791,2.18164-3.3457-.437-.64746-3.77929-1.831-4.7666-1.831h-.00976c-.16065.65429-.54834,2.11914-1.03467,3.85449l-.24414.87207L34.76731,4.929c-.45361-.58594-1.3457-1.73926-1.64892-2.08594A4.244,4.244,0,0,0,31.4763,4.17119c.21337.3125.95214,1.32324,2.04834,2.77148l.47753.63184-.78564.0957c-1.0874.13281-2.03955.26562-2.69922.3584-.37158.05176-.60449.084-.75586.10351A2.36837,2.36837,0,0,0,30.12083,9.556c.13379.00879,1.5415.01758,3.4624-.06347l.63867-.02735-.18262.61231C33.56809,11.65947,33.20774,12.93779,33.08421,13.388ZM31.4221,4.08916l.002.0039ZM36.6638.65263,36.64817.722A.42362.42362,0,0,0,36.6638.65263Z"/><path class="cls-4" d="M10.9344,43.779h-8.033l8.8104-21.8187c-2.384,2.53947-4.97529,5.28627-7.72206,7.92942l-3.16137-3.576A120.064,120.064,0,0,0,17.87907,6.61982h8.033Z"/><path class="cls-5" d="M10.73434,44.28613V43.5996a15.05674,15.05674,0,0,1,9.70507-14.03125.5154.5154,0,0,0,.34034-.44043.48464.48464,0,0,0-.23877-.47168,10.02685,10.02685,0,0,1,5.188-18.60839q.3501,0,.70557.02441a10.028,10.028,0,0,1,4.46729,18.59082.46858.46858,0,0,0-.2295.457.52454.52454,0,0,0,.34327.44824A15.05933,15.05933,0,0,1,40.72213,43.5996v.68653Z"/><path class="cls-3" d="M25.72794,10.73486q.32748,0,.65964.02246A9.34148,9.34148,0,0,1,30.5467,28.07568a1.19362,1.19362,0,0,0,.2271,2.13525,14.302,14.302,0,0,1,9.26229,13.38916H11.42035a14.29766,14.29766,0,0,1,9.26088-13.38916,1.19433,1.19433,0,0,0,.21458-2.1416,9.34037,9.34037,0,0,1,4.83213-17.33447m.00044-1.37256h-.00005a10.71292,10.71292,0,0,0-5.85027,19.68847,15.74913,15.74913,0,0,0-9.83023,14.54932v1.37256H41.40861V43.60009a15.751,15.751,0,0,0-9.83317-14.5498A10.71382,10.71382,0,0,0,26.48151,9.38818q-.37947-.02637-.75313-.02588Z"/><g class="cls-6"><path class="cls-3" d="M25.3524,30.21105a14.03815,14.03815,0,0,0-2.41333,1.18036A14.28264,14.28264,0,0,0,16.09247,43.6H11.42134a14.2937,14.2937,0,0,1,9.00829-13.29057c.08237-.03432.167-.06635.25165-.09836a1.19406,1.19406,0,0,0,.215-2.14115,9.34053,9.34053,0,0,1,5.49237-17.31206,9.17523,9.17523,0,0,1,1.67221.26993A9.34451,9.34451,0,0,0,25.56745,28.0699,1.19405,1.19405,0,0,1,25.3524,30.21105Z"/></g></g></svg>