<svg xmlns="http://www.w3.org/2000/svg" viewBox="0 0 34.54516 42.60514"><defs><style>.cls-1{fill:#850bff;}.cls-2{fill:#ec831b;}.cls-3{fill:#161b35;}.cls-4,.cls-5{fill:#fff;}.cls-4{stroke:#161b35;stroke-linejoin:round;stroke-width:2.67543px;}.cls-6{opacity:0.25;}</style></defs><title>lifestyle</title><g id="Layer_1" data-name="Layer 1"><path class="cls-1" d="M25.25788.0085H9.29035A9.28343,9.28343,0,0,0,.0072,9.29163V33.31816A9.28305,9.28305,0,0,0,9.29035,42.6013H25.25788A9.28305,9.28305,0,0,0,34.541,33.31816V9.29163A9.28343,9.28343,0,0,0,25.25788.0085Zm4.38771,33.30966a4.39307,4.39307,0,0,1-4.38771,4.3883H9.29035a4.39306,4.39306,0,0,1-4.38771-4.3883V9.29163a4.38867,4.38867,0,0,1,4.38771-4.3877H25.25788a4.39294,4.39294,0,0,1,4.38771,4.3877Z"/><path class="cls-2" d="M27.56736,23.14652c-1.26807-1.29-5.82861,4.64941-5.82861,6.78515,0,1.75782,3.69287,2.06934,4.69385,2.78125a5.4792,5.4792,0,0,1,1.46826,3.47071c0,1.04492-4.0044,2.64746-6.40723,2.71386-.40039.55665-.80078,1.11231-1.04541,1.42383-.37842.51172-1.91357-.48925-1.69092-.93457.13379-.2666.31153-.623.48926-1.001-2.269-1.11231-3.7373-3.80469-3.7373-4.89454,0-.46679,1.22363-.40039,1.37939-.20019,1.5127,1.86914,7.71973,1.64648,7.71973.91211,0-.77832-7.63086-1.22363-7.63086-4.87207,0-3.00293,4.62744-8.877,8.2539-8.877a3.1038,3.1038,0,0,1,.44483.02246c.42285-.57813.86767-1.20118,1.13476-1.55762.40039-.51172,1.93555.49023,1.69043.957-.17773.334-.44482.86719-.68945,1.37891,1.75781,1.002,3.18164,2.66992,3.18164,3.49316,0,2.22461-3.07031,5.80664-4.36084,5.80664-1.15674,0-3.15918-1.78027-2.69189-2.18066C25.38719,27.19535,28.50144,24.05863,27.56736,23.14652Z"/><path class="cls-3" d="M20.12058,40.99124a2.039,2.039,0,0,1-1.03955-.33886c-.73095-.44824-1.03613-1.02442-.79736-1.502.07764-.15527.16992-.33984.26807-.541C16.3867,37.31156,14.98,34.75394,14.98,33.49124a.83967.83967,0,0,1,.62793-.78808c.40185-.1377,1.3623-.168,1.69873.26269.94629,1.16895,4.30664,1.34766,5.97851,1.17481-.20556-.06055-.42236-.12109-.623-.17676-2.32422-.64941-6.21387-1.73535-6.21387-4.63281,0-3.18945,4.74121-9.40625,8.7832-9.40625.06006,0,.12354,0,.18995.002l.34179-.4707c.24317-.335.46485-.6416.624-.85449.37548-.4795,1.0996-.4668,1.85253.01855.69971.45215.9795,1.02734.73047,1.502-.12646.23731-.29736.57422-.47265.93164,1.53076.99317,3.02539,2.60645,3.02539,3.69434,0,2.48535-3.249,6.33594-4.89014,6.33594a4.49963,4.49963,0,0,1-3.22607-2.21.78371.78371,0,0,1,.18994-.90235c1.48681-1.21191,3.57178-3.45019,3.61279-4.36132l-.00391-.00391-.01562-.08887c-.064-.06445-.29443.02539-.34082.04395-1.584.64746-4.58106,4.81543-4.58106,6.37011,0,.80079,1.57471,1.291,2.72461,1.64942a6.77587,6.77587,0,0,1,1.74659.70019,5.91821,5.91821,0,0,1,1.69091,3.90235c0,1.57715-4.30078,3.06445-6.65576,3.22949-.35351.49121-.69238.958-.90967,1.23535A.88424.88424,0,0,1,20.12058,40.99124Zm-.09082-.99316-.00732.00879Zm-.729-.51465a1.63686,1.63686,0,0,0,.77832.4502c.25146-.32617.61816-.835.98486-1.34571l.15284-.21191.2622-.00781c2.438-.06738,5.7417-1.62207,5.89405-2.20313a5.05343,5.05343,0,0,0-1.248-3.02148,6.713,6.713,0,0,0-1.44727-.55176c-1.54492-.48144-3.46826-1.08105-3.46826-2.66016,0-1.99511,3.23145-6.52929,5.23877-7.35058a1.27752,1.27752,0,0,1,1.49316.19043,1.12966,1.12966,0,0,1,.32569.88574c-.06738,1.5-2.665,4.00391-3.80664,4.97266a3.83957,3.83957,0,0,0,2.17236,1.3955c.894,0,3.83154-3.20605,3.83154-5.27734,0-.4707-1.13525-2.01855-2.91455-3.0332l-.42773-.24414.2124-.44434c.21826-.456.4541-.92969.63037-1.26758a1.53906,1.53906,0,0,0-.78174-.45312c-.147.19824-.34619.47265-.5625.77148l-.70507.96875L25.60056,21a2.43523,2.43523,0,0,0-.36914-.0166c-3.397,0-7.72461,5.65821-7.72461,8.34766,0,2.09375,3.40528,3.04492,5.43995,3.6123,1.50439.41993,2.19091.61231,2.19091,1.25977,0,.24121-.12255.57324-.70752.78027-1.48242.52344-6.35449.44824-7.89013-1.28515a1.43305,1.43305,0,0,0-.48438-.01954,7.01861,7.01861,0,0,0,3.42383,4.23145l.46777.22949-.22168.47168C19.57517,38.9307,19.42527,39.23441,19.30076,39.48343ZM16.477,33.62406l.01074.01269Z"/><path class="cls-2" d="M9.24187,19.55765V17.36136L7.7741,16.51468,5.87273,17.61234l-2.335-1.34863-.00049-2.69532,1.90186-1.09863V10.77445L3.53728,9.67679V6.9805L5.87273,5.63187,7.7741,6.72953l1.46777-.84668V3.68753L11.57732,2.3389l2.335,1.34863V5.88285l1.46777.84668,1.90186-1.09766,2.335,1.34863V9.67679L17.7155,10.77445v1.69531l1.90137,1.09863v2.69532l-2.335,1.34863-1.90186-1.09766-1.46777.84668v2.19629l-2.335,1.34863Zm2.33545-4.04492,3.36914-1.94434V10.50687l-4.55127,4.32422ZM8.20769,12.79984l4.55469-4.38379-1.18506-.68359L8.20769,9.67679Z"/><path class="cls-3" d="M11.57713,2.83988l1.90142,1.09765h.00016V6.13285L15.38012,7.231,17.2817,6.13285,19.18311,7.231h.00017v2.1958L17.2817,10.52445v2.1958l1.90158,1.09765v2.19581h-.00017L17.2817,17.11185l-1.90158-1.09814-1.90141,1.09814v2.19531h-.00016l-1.90142,1.09815L9.67555,19.30716V17.11185H9.67538L7.774,16.01371,5.87257,17.11136,3.97116,16.01371H3.971V13.8179l1.90158-1.09765v-2.1958L3.971,9.42679V7.231h.00017L5.87257,6.13333,7.774,7.231l1.9014-1.09814h.00017V3.93753l1.90158-1.09765M7.774,13.8179l5.70457-5.48925L11.57713,7.231,7.774,9.42679V13.8179m3.80315,2.19581,3.803-2.19581V9.49759L9.67555,14.91605l1.90158,1.09766m0-14.1753-.43356.25049L9.242,3.18656l-.43369.25v2.1958l-1.03441.59717L6.30616,5.38236l-.43359-.25049L5.439,5.38236,3.53756,6.48,3.104,6.73l0,.501-.00017,2.1958,0,.501.43373.25,1.46788.84765v1.19385l-1.46788.84766-.43369.25v3.19775l.43369.25L5.439,17.86234l.43358.25049.43357-.25049,1.46772-.84717,1.03428.59717.00014,1.69482,0,.50049.43351.25049,1.90158,1.09814.43371.25049.43372-.25049,1.90141-1.09814.4335-.25049,0-.50049.00012-1.69482,1.03421-.59717,1.46786.84766.43373.25049.43372-.25049,1.90141-1.09815.43347-.25049,0-.50048.00017-2.19581,0-.501-.43372-.25L18.149,12.21927V11.02542l1.46789-.84765.43369-.25V6.7305L19.617,6.48,17.7154,5.38187l-.4337-.25049-.43371.25049-1.46786.84766L14.346,5.63236V3.43656l-.43369-.25L12.01069,2.0889l-.43356-.25049ZM8.64122,9.92728l2.93593-1.69482.46918.271L8.64122,11.77982V9.92728Zm2.47335,4.81787,3.3983-3.22754v1.79981l-2.9358,1.69482-.4625-.26709Z"/><path class="cls-4" d="M29.69559,13.43279l-.00159.00171-.00977.0099-.01147.01161-.0124.01253-.0133.0134-.01414.01424-.01494.015-.01571.01581-.01644.01653-.01711.01723-.01775.01787-.01835.0185-.01891.01907-.00519.00525a8.16378,8.16378,0,0,0-1.80924-2.79469,8.77163,8.77163,0,0,0-2.74054-1.89462c.0676-.066.119-.11858.13955-.13835a3.83,3.83,0,0,1,2.41836-1.093,3.11949,3.11949,0,0,1,2.14919.9981,3.42787,3.42787,0,0,1,1.255,2.30374l.00025.01748.00009.01758q0,.00881-.00006.0176L30.921,11.073l-.00037.01764-.00051.01767-.00067.01768-.00082.01771-.001.01772-.00112.01774-.00128.01777-.00143.01778-.00157.01781-.00174.01782-.00188.01785-.002.01786-.00219.01788-.00233.01791-.00249.01792-.00264.01794-.00279.018-.003.018-.00309.018-.00324.018-.0034.018-.00355.01806-.0037.01807-.00385.0181-.004.01812-.00415.01813-.00431.01816-.00445.01817-.00461.01819-.00475.01821-.00491.01823-.00506.01825-.00521.01826-.00536.01829-.00551.0183-.00566.01832-.00581.01834-.006.01836-.00612.01837-.00626.0184-.00641.01841-.00657.01843-.00671.01845-.00687.01846-.007.01849-.00717.0185-.00732.01852-.00746.01853-.00762.01856-.00777.01857-.00792.01859-.00806.0186-.00822.01863-.00837.01864-.00852.01866-.00866.01867-.00882.01869-.009.01871-.00911.01873-.00927.01874-.00942.01876-.00956.01878-.00972.01879-.00987.01881-.01.01883-.01017.01884-.01031.01886-.01046.01888-.01062.01889-.01076.01891-.01091.01892-.01106.01894-.01121.019-.01136.019-.01151.019-.01166.019-.01181.019-.012.019-.0121.01906-.01226.01906-.0124.01909-.01255.0191-.0127.01911-.01286.01913-.013.01915-.01315.01916-.0133.01917-.01345.01919-.01359.01921-.01374.01922-.01389.01924-.014.01925-.01419.01927-.01434.01928-.01449.01929-.01463.01931-.01478.01933-.01493.01934-.01508.01935-.01523.01937-.01538.01938-.01552.0194-.01567.01941-.01582.01943-.016.01944-.01612.01945-.01626.01947-.01641.01948-.01656.0195-.01671.01951-.01686.01952-.017.01954-.01715.01955-.0173.01956-.01745.01958-.01759.01959-.01775.01961-.01789.01961-.018.01964-.01819.01964-.01833.01966-.01848.01967-.01863.01968-.01877.0197-.01893.01971Z"/><path class="cls-4" d="M27.90088,15.22833C24.01519,19.09425,15.071,27.94357,11.545,31.4312a8.1307,8.1307,0,0,0-1.69894-2.5251,8.74077,8.74077,0,0,0-2.89748-1.96024c3.48962-3.4904,12.603-12.60693,16.429-16.43214l.0012-.00119a6.27848,6.27848,0,0,1,2.90338,1.744A6.07126,6.07126,0,0,1,27.90088,15.22833Z"/><path class="cls-4" d="M9.91922,32.81273c-1.37363.44193-4.38178,1.47957-6.29221,2.09621.56645-1.86378,1.523-4.7652,1.98078-6.29615a6.36261,6.36261,0,0,1,2.82039,1.72148A6.16984,6.16984,0,0,1,9.91922,32.81273Z"/><path class="cls-5" d="M29.69559,13.43279l-.00159.00171-.00977.0099-.01147.01161-.0124.01253-.0133.0134-.01414.01424-.01494.015-.01571.01581-.01644.01653-.01711.01723-.01775.01787-.01835.0185-.01891.01907-.00519.00525a8.16378,8.16378,0,0,0-1.80924-2.79469,8.77163,8.77163,0,0,0-2.74054-1.89462c.0676-.066.119-.11858.13955-.13835a3.83,3.83,0,0,1,2.41836-1.093,3.11949,3.11949,0,0,1,2.14919.9981,3.42787,3.42787,0,0,1,1.255,2.30374l.00025.01748.00009.01758q0,.00881-.00006.0176L30.921,11.073l-.00037.01764-.00051.01767-.00067.01768-.00082.01771-.001.01772-.00112.01774-.00128.01777-.00143.01778-.00157.01781-.00174.01782-.00188.01785-.002.01786-.00219.01788-.00233.01791-.00249.01792-.00264.01794-.00279.018-.003.018-.00309.018-.00324.018-.0034.018-.00355.01806-.0037.01807-.00385.0181-.004.01812-.00415.01813-.00431.01816-.00445.01817-.00461.01819-.00475.01821-.00491.01823-.00506.01825-.00521.01826-.00536.01829-.00551.0183-.00566.01832-.00581.01834-.006.01836-.00612.01837-.00626.0184-.00641.01841-.00657.01843-.00671.01845-.00687.01846-.007.01849-.00717.0185-.00732.01852-.00746.01853-.00762.01856-.00777.01857-.00792.01859-.00806.0186-.00822.01863-.00837.01864-.00852.01866-.00866.01867-.00882.01869-.009.01871-.00911.01873-.00927.01874-.00942.01876-.00956.01878-.00972.01879-.00987.01881-.01.01883-.01017.01884-.01031.01886-.01046.01888-.01062.01889-.01076.01891-.01091.01892-.01106.01894-.01121.019-.01136.019-.01151.019-.01166.019-.01181.019-.012.019-.0121.01906-.01226.01906-.0124.01909-.01255.0191-.0127.01911-.01286.01913-.013.01915-.01315.01916-.0133.01917-.01345.01919-.01359.01921-.01374.01922-.01389.01924-.014.01925-.01419.01927-.01434.01928-.01449.01929-.01463.01931-.01478.01933-.01493.01934-.01508.01935-.01523.01937-.01538.01938-.01552.0194-.01567.01941-.01582.01943-.016.01944-.01612.01945-.01626.01947-.01641.01948-.01656.0195-.01671.01951-.01686.01952-.017.01954-.01715.01955-.0173.01956-.01745.01958-.01759.01959-.01775.01961-.01789.01961-.018.01964-.01819.01964-.01833.01966-.01848.01967-.01863.01968-.01877.0197-.01893.01971Z"/><path class="cls-5" d="M27.90088,15.22833C24.01519,19.09425,15.071,27.94357,11.545,31.4312a8.1307,8.1307,0,0,0-1.69894-2.5251,8.74077,8.74077,0,0,0-2.89748-1.96024c3.48962-3.4904,12.603-12.60693,16.429-16.43214l.0012-.00119a6.27848,6.27848,0,0,1,2.90338,1.744A6.07126,6.07126,0,0,1,27.90088,15.22833Z"/><path class="cls-5" d="M9.91922,32.81273c-1.37363.44193-4.38178,1.47957-6.29221,2.09621.56645-1.86378,1.523-4.7652,1.98078-6.29615a6.36261,6.36261,0,0,1,2.82039,1.72148A6.16984,6.16984,0,0,1,9.91922,32.81273Z"/><g class="cls-6"><path class="cls-3" d="M27.69945,10.82673A9.46,9.46,0,0,0,26.2608,9.64078a8.3871,8.3871,0,0,0-1.30218-.70884c.06779-.066.11891-.11832.13972-.13794a3.8279,3.8279,0,0,1,2.4186-1.09336,2.46308,2.46308,0,0,1,.78834.1308,4.25708,4.25708,0,0,0-1.59335.96256c-.0202.01962-.07194.07194-.13911.13794A20.74869,20.74869,0,0,1,27.69945,10.82673Z"/><path class="cls-3" d="M8.56242,26.94589q.77067,1.06641,1.54137,2.13282l-.25774-.17263q-1.45711-.97677-2.89721-1.96019C10.43821,23.45534,19.5513,14.33868,23.37775,10.514l.00119-.00119a5.25532,5.25532,0,0,1,1.1653.44769C20.49722,15.00694,11.92276,23.585,8.56242,26.94589Z"/><path class="cls-3" d="M7.03326,29.23189c-.44054,1.42154-1.11593,3.49292-1.6106,5.0845-.64447.21582-1.26279.42034-1.79549.59276.56658-1.86389,1.5226-4.76524,1.98041-6.29618A5.574,5.574,0,0,1,7.03326,29.23189Z"/></g></g></svg>