<svg xmlns="http://www.w3.org/2000/svg" viewBox="0 0 43.24712 42.56828"><defs><style>.cls-1{fill:#850bff;}.cls-2{fill:#ec831b;}.cls-3{fill:#161b35;}.cls-4{opacity:0.25;}.cls-5{fill:#fff;}.cls-6{opacity:0.23;}</style></defs><title>programs</title><g id="Layer_1" data-name="Layer 1"><path class="cls-1" d="M29.603.01166H13.65187A9.27387,9.27387,0,0,0,4.37828,9.28524V33.287a9.27348,9.27348,0,0,0,9.27359,9.27357H29.603A9.27348,9.27348,0,0,0,38.87655,33.287V9.28524A9.27387,9.27387,0,0,0,29.603.01166ZM33.98615,33.287A4.38854,4.38854,0,0,1,29.603,37.6708H13.65187A4.38853,4.38853,0,0,1,9.26868,33.287V9.28524a4.38412,4.38412,0,0,1,4.38319-4.38319H29.603a4.38842,4.38842,0,0,1,4.38319,4.38319Z"/><path class="cls-2" d="M22.99029,39.43838a7.33051,7.33051,0,0,1-1.207-.12891,4.90714,4.90714,0,0,1-.687-.167,8.77091,8.77091,0,0,1-1.80127-.81055,11.49106,11.49106,0,0,1-2.8252-2.41015,13.4138,13.4138,0,0,1-2.12646-3.30664,12.98717,12.98717,0,0,1-.752-2.09375,11.15975,11.15975,0,0,1-.31494-2.18848,9.1843,9.1843,0,0,1,.20166-2.22949,8.09765,8.09765,0,0,1,.76807-2.083,6.21554,6.21554,0,0,1,.48486-.7832,10.37577,10.37577,0,0,1,.89551-1.09571,9.0457,9.0457,0,0,1,1.11426-.95215,4.2224,4.2224,0,0,1,1.13281-.56152,2.06863,2.06863,0,0,1,.36231-.09668,4.99085,4.99085,0,0,1,.88086-.10156,4.77037,4.77037,0,0,1,.77294.08008,3.66992,3.66992,0,0,1,.4253.08789,4.94726,4.94726,0,0,1,.90967.374c-.07081-.19922-.14209-.39941-.21387-.59863-.27637-.77344-.55274-1.54688-.79053-2.333a15.95347,15.95347,0,0,1-.54443-2.34668,11.71855,11.71855,0,0,1-.13672-2.90039,2.00644,2.00644,0,0,1,.21435-.9502,1.67545,1.67545,0,0,1,.35743-.6123,2.19286,2.19286,0,0,1,.76709-.68262l.53222-.22754c.26172-.07129.51563-.1289.76563-.17285-.14014-.17285-.84571-1.04394-.84571-1.04394l-1.7583,2.10742c-.54882.6582-1.09814,1.31738-1.66357,1.96191a2.61548,2.61548,0,0,1-1.88525.81348h-.00928a2.73492,2.73492,0,0,1-1.88965-.76074,2.69071,2.69071,0,0,1-.80225-1.90723,2.77173,2.77173,0,0,1,.751-1.85449c.30713-.34961.60693-.70606.90625-1.06152.72461-.86036,1.39355-1.66309,2.062-2.46583l.834-1.001c.54785-.6582,1.0957-1.31641,1.65039-1.96875a2.71259,2.71259,0,0,1,1.21142-.72559,2.18138,2.18138,0,0,1,.64746-.09863,2.26288,2.26288,0,0,1,.42041.041,2.18229,2.18229,0,0,1,1.01319.33691,2.6722,2.6722,0,0,1,.93506.94238c.228.36914.50732.77149.873,1.25293.32666.418.66895.83789,1.01075,1.25879l.11181.1377c.87012,1.07129,1.74024,2.14257,2.49756,3.28808a12.89378,12.89378,0,0,1,.89453,1.55176c.11377.23828.22461.48047.32617.72461a7.91023,7.91023,0,0,1,.43018,1.30957,2.09307,2.09307,0,0,1,.05029,1.01953,1.65616,1.65616,0,0,1-.18408.69043,1.67463,1.67463,0,0,1-.34473.59082,1.67238,1.67238,0,0,1-.48974.48633,2.17221,2.17221,0,0,1-.9292.46973l-.59229.084h-.03711a2.91236,2.91236,0,0,1-1.36963-.3418q-.19555-.10107-.397-.19238c-.168-.06445-.33984-.124-.51416-.17773a32.75436,32.75436,0,0,0,1.03906,3.252c.21436.59668.42823,1.19336.623,1.79492.15772.48438.30371.97461.42725,1.46875a17.74473,17.74473,0,0,1,.354,1.97363,10.18374,10.18374,0,0,1-.08594,3.1377,3.42394,3.42394,0,0,1-.18945.68652l-.04492.11621a3.22967,3.22967,0,0,1-.30274.63868,3.40682,3.40682,0,0,1-.51757.64355,3.00542,3.00542,0,0,1-2.02637.84668,3.42794,3.42794,0,0,1-1.67139-.44531,4.69191,4.69191,0,0,1-.8457-.64063,5.77786,5.77786,0,0,1-.41162-.4209c-.25879-.28906-.502-.59277-.74463-.89746l-.18408-.23047a15.77259,15.77259,0,0,0-1.26319-1.45312c-.01953.02246-.03955.0459-.05908.06933a4.88091,4.88091,0,0,0-.33984.585l-.03662.07714a5.63079,5.63079,0,0,0-.18653.73829,6.33235,6.33235,0,0,0,.01612,1.07519,8.31876,8.31876,0,0,0,.45214,1.583,10.44159,10.44159,0,0,0,1.0918,1.85156A9.52688,9.52688,0,0,0,21.524,33.41885a6.36225,6.36225,0,0,0,.94385.56152,3.81614,3.81614,0,0,0,.46924.127s.08789-.00879.10205-.01172l.01318-.00781c.03369-.0332.06641-.0664.09815-.10058a2.69161,2.69161,0,0,1,.90381-.877l.55908-.24218a2.32246,2.32246,0,0,1,.76025-.12989,2.93811,2.93811,0,0,1,1.353.35449A2.69465,2.69465,0,0,1,27.97955,34.704a2.86625,2.86625,0,0,1-.28369,2.0791,7.329,7.329,0,0,1-.79053,1,6.368,6.368,0,0,1-.9585.78614,5.14,5.14,0,0,1-1.01855.50781A5.08882,5.08882,0,0,1,22.99029,39.43838Z"/><path class="cls-3" d="M21.3843,2.83242a1.515,1.515,0,0,1,.32951.03662,1.476,1.476,0,0,1,.7357.23487,1.99138,1.99138,0,0,1,.70992.71c.28146.456.59357.8916.91752,1.31884.372.47559.75452.94434,1.13629,1.41407.85276,1.0498,1.71106,2.104,2.45788,3.23339a12.31965,12.31965,0,0,1,.8479,1.47022c.108.22607.21386.45605.31071.68945a7.36965,7.36965,0,0,1,.395,1.19825,1.497,1.497,0,0,1,.03485.78857.97965.97965,0,0,1-.13448.49951.99317.99317,0,0,1-.255.437.99336.99336,0,0,1-.35463.35547,1.48731,1.48731,0,0,1-.67369.35352q-.2623.03588-.526.07129a2.21927,2.21927,0,0,1-.999-.27051c-.14213-.07276-.28561-.14356-.43124-.209a8.63663,8.63663,0,0,0-1.65881-.46435l-.02713-.00244c.02295.146.04873.29052.07732.43554a50.64306,50.64306,0,0,0,1.819,5.74219c.15257.47022.294.94385.41383,1.42334a16.90974,16.90974,0,0,1,.3393,1.89649,9.53362,9.53362,0,0,1-.08151,2.92773,2.77168,2.77168,0,0,1-.14978.54932,3.54761,3.54761,0,0,1-.28565.63574,2.75184,2.75184,0,0,1-.41036.51562,2.33948,2.33948,0,0,1-1.5547.66065c-.02238,0-.0447,0-.06716-.001a2.64426,2.64426,0,0,1-1.26868-.356,4.00459,4.00459,0,0,1-.719-.54931,5.09684,5.09684,0,0,1-.36089-.37012c-.29187-.32519-.5615-.67041-.83459-1.01074a13.58057,13.58057,0,0,0-1.757-1.93848c-.05365-.03662-.10869-.07226-.16441-.10595a5.7201,5.7201,0,0,0-.53646.55908,5.37458,5.37458,0,0,0-.464.79248l-.00208.00488a5.70378,5.70378,0,0,0-.248.92383,6.80257,6.80257,0,0,0,.00837,1.26611,8.94749,8.94749,0,0,0,.496,1.76612A11.094,11.094,0,0,0,19.62795,32.474a10.22978,10.22978,0,0,0,1.45885,1.478,7.00387,7.00387,0,0,0,1.084.65088,4.37737,4.37737,0,0,0,.6277.18066c.06472.00391.12944.00635.19415.00635q.06387,0,.12772-.00293h.00068c.06273-.01465.12542-.03223.18744-.05176l.00136-.00049c.05647-.03076.11219-.06347.16652-.09912a3.10012,3.10012,0,0,0,.22781-.23339,1.99282,1.99282,0,0,1,.70294-.69874c.15748-.0664.31494-.1333.47305-.19921a1.59739,1.59739,0,0,1,.4937-.07569,2.24272,2.24272,0,0,1,1.03135.2749,2.01876,2.01876,0,0,1,.90919,1.18311,1.49121,1.49121,0,0,1,.03551.78906,1.46775,1.46775,0,0,1-.23479.73584,6.76976,6.76976,0,0,1-.70573.89307,5.60576,5.60576,0,0,1-.85483.69726,4.84852,4.84852,0,0,1-.95586.46485,4.32794,4.32794,0,0,1-1.60863.28222,6.67668,6.67668,0,0,1-1.09377-.11914,4.24214,4.24214,0,0,1-.5915-.145,8.08659,8.08659,0,0,1-1.65669-.74462A10.76865,10.76865,0,0,1,16.99587,35.475a12.77936,12.77936,0,0,1-2.02037-3.13574,12.48437,12.48437,0,0,1-.71479-1.98242,10.55,10.55,0,0,1-.2954-2.0542,8.48453,8.48453,0,0,1,.18811-2.05909,7.41932,7.41932,0,0,1,.70434-1.90478,5.55275,5.55275,0,0,1,.43124-.69629,9.59657,9.59657,0,0,1,.83323-1.022,8.31489,8.31489,0,0,1,1.0304-.87842,3.62636,3.62636,0,0,1,.95167-.46533,1.49879,1.49879,0,0,1,.24871-.06592,4.38688,4.38688,0,0,1,.76635-.09131h.01112a4.74656,4.74656,0,0,1,.74618.08691,2.02925,2.02925,0,0,1,.248.0542,5.384,5.384,0,0,1,1.82668,1.0293,6.73548,6.73548,0,0,1,.59987.53076q-.08048-.28417-.16859-.5664c-.4619-1.48487-1.052-2.92627-1.50277-4.415a15.52351,15.52351,0,0,1-.52179-2.2461,10.99644,10.99644,0,0,1-.13308-2.72949,1.4942,1.4942,0,0,1,.1707-.76269.99154.99154,0,0,1,.25428-.437,1.50379,1.50379,0,0,1,.55595-.50976c.15747-.06641.3149-.1333.47234-.19922a7.50908,7.50908,0,0,1,1.82185-.24072c-.06481-.08545-.12961-.17139-.19438-.25635-.5532-.7041-1.12585-1.39307-1.686-2.09277-.09335-.11719-.18669-.2334-.27936-.35108q-.9792,1.17335-1.95839,2.34766c-.65906.78955-1.31394,1.583-1.99181,2.35644a1.9758,1.9758,0,0,1-1.39962.57959c-.02234.001-.04471.00147-.06692.00147a1.98359,1.98359,0,0,1-1.91236-1.981,2.09628,2.09628,0,0,1,.57962-1.39941c.32746-.37354.64722-.75391.967-1.13379q1.24566-1.478,2.4788-2.96533c.6695-.8042,1.33622-1.61036,2.01409-2.40674a1.97528,1.97528,0,0,1,.87364-.5083,1.51948,1.51948,0,0,1,.45983-.07227m0-1.37891a2.909,2.909,0,0,0-.87537.13624,3.30144,3.30144,0,0,0-1.42873.84375l-.04151.041-.03789.04492c-.55524.65235-1.10307,1.311-1.651,1.96973l-.3728.44824-.46282.55518q-1.00293,1.20409-2.01063,2.40381c-.3352.39843-.63879.75878-.94952,1.11328a3.44187,3.44187,0,0,0-.92163,2.30859,3.36378,3.36378,0,0,0,3.29125,3.35986c.04249,0,.08526-.001.128-.00293a3.3,3.3,0,0,0,2.37451-1.04687q.19778-.22559.393-.45313a13.3866,13.3866,0,0,0,.17449,2.61719,16.653,16.653,0,0,0,.56611,2.44531c.16482.54444.34684,1.08057.53163,1.60645h-.00173l-.08087-.01318a5.26509,5.26509,0,0,0-.87834-.09034,5.539,5.539,0,0,0-1.02446.11377,2.84622,2.84622,0,0,0-.47163.126,4.93636,4.93636,0,0,0-1.30348.6543,9.803,9.803,0,0,0-1.2,1.02734,11.00757,11.00757,0,0,0-.95606,1.168,6.935,6.935,0,0,0-.54068.873,8.77806,8.77806,0,0,0-.83173,2.26416,9.85577,9.85577,0,0,0-.21481,2.394,11.9,11.9,0,0,0,.33422,2.32568,13.85524,13.85524,0,0,0,.78921,2.20264,14.0441,14.0441,0,0,0,2.23335,3.47754,12.19281,12.19281,0,0,0,2.9967,2.55713,9.44749,9.44749,0,0,0,1.94221.87353,5.692,5.692,0,0,0,.7847.1919,7.85942,7.85942,0,0,0,1.322.13818h.0001a5.63632,5.63632,0,0,0,2.12834-.38379l.06786-.02783a5.64229,5.64229,0,0,0,1.15207-.58008,6.896,6.896,0,0,0,1.06272-.87353,8.00267,8.00267,0,0,0,.8538-1.07471,3.518,3.518,0,0,0,.38244-2.69092,3.36543,3.36543,0,0,0-1.58671-2.01221,3.61947,3.61947,0,0,0-1.67673-.43505,2.96537,2.96537,0,0,0-.91878.14306l-.05357.01709-.052.02149-.34736.14648-.1309.05518-.08724.03662-.0814.04834a3.37528,3.37528,0,0,0-.9444.82959L22.70584,33.33a5.69369,5.69369,0,0,1-.77729-.47119,8.8644,8.8644,0,0,1-1.20893-1.228,9.72762,9.72762,0,0,1-.99881-1.70068,7.59725,7.59725,0,0,1-.39974-1.41309,5.456,5.456,0,0,1-.008-.89941q.03489-.178.08362-.35108c.19179.227.38226.46534.577.7085l.06659.0835.13141.16406c.23716.29687.48239.604.75354.90576a6.32613,6.32613,0,0,0,.46036.47021,5.27329,5.27329,0,0,0,.97436.73291,4.03727,4.03727,0,0,0,1.89025.5293l.11692.002a3.68772,3.68772,0,0,0,2.49173-1.02783,4.08323,4.08323,0,0,0,.62861-.77441,3.87785,3.87785,0,0,0,.36938-.77l.04244-.10938a4.135,4.135,0,0,0,.226-.81787,10.85493,10.85493,0,0,0,.09075-3.34961,18.24008,18.24008,0,0,0-.36829-2.04882c-.1161-.46485-.26-.96-.44019-1.51563-.19725-.6084-.41354-1.21191-.63012-1.81592-.22336-.623-.44077-1.22949-.63379-1.83154a3.39284,3.39284,0,0,0,1.1722.2207h.09353l.09267-.01269.23784-.03223.28891-.03906.06478-.00879.06362-.01514a2.85158,2.85158,0,0,0,1.18631-.58886,2.34411,2.34411,0,0,0,.62216-.61719,2.346,2.346,0,0,0,.43388-.74317,2.33221,2.33221,0,0,0,.23377-.87841,2.85841,2.85841,0,0,0-.07511-1.30274,8.78243,8.78243,0,0,0-.45557-1.37451c-.10534-.25391-.221-.50586-.33931-.75342a13.62444,13.62444,0,0,0-.94222-1.63672c-.77545-1.17285-1.6566-2.25781-2.50873-3.30664l-.12878-.1582c-.34315-.42236-.68617-.84424-1.02052-1.27149-.33989-.44873-.60772-.833-.83019-1.19335a3.33925,3.33925,0,0,0-1.18043-1.17237,2.78641,2.78641,0,0,0-1.25715-.418,2.86453,2.86453,0,0,0-.511-.0459Z"/><g class="cls-4"><path class="cls-3" d="M22.3176,3.029a1.97192,1.97192,0,0,0-.54366.38386c-.67756.7969-1.3445,1.60242-2.01411,2.40661Q18.52272,7.30322,17.281,8.785c-.31955.37988-.63977.76043-.96661,1.13368a2.09571,2.09571,0,0,0-.58011,1.39955,2.0111,2.0111,0,0,0,.58011,1.39955,2.4252,2.4252,0,0,0,.54629.38319,2.406,2.406,0,0,1-.86983.19691,1.98945,1.98945,0,0,1-1.39954-.5801,2.01109,2.01109,0,0,1-.5801-1.39955,2.0957,2.0957,0,0,1,.5801-1.39955c.32684-.37325.64707-.7538.96663-1.13368q1.246-1.47778,2.47886-2.9655c.6696-.80419,1.33589-1.60971,2.01413-2.40661a1.98228,1.98228,0,0,1,.8738-.5085,1.493,1.493,0,0,1,.78894-.03514A1.46422,1.46422,0,0,1,22.3176,3.029Z"/><path class="cls-3" d="M23.8789,38.672a4.99266,4.99266,0,0,1-.88905.07691,6.6458,6.6458,0,0,1-1.09325-.11934,4.23649,4.23649,0,0,1-.592-.14453,8.079,8.079,0,0,1-1.65612-.74518,10.753,10.753,0,0,1-2.65257-2.26474,12.76041,12.76041,0,0,1-2.02009-3.13588,12.49663,12.49663,0,0,1-.71535-1.9823,10.5386,10.5386,0,0,1-.295-2.0539,8.46626,8.46626,0,0,1,.18827-2.05988,7.391,7.391,0,0,1,.70409-1.90473,5.5967,5.5967,0,0,1,.43093-.69546,9.55336,9.55336,0,0,1,.83336-1.02231,8.29566,8.29566,0,0,1,1.03026-.87844,3.63726,3.63726,0,0,1,.952-.46541,1.52719,1.52719,0,0,1,.24861-.0663,4.432,4.432,0,0,1,.76641-.09083,4.58144,4.58144,0,0,1,.75711.08685c.03912.006.07823.01326.11669.02122a1.44015,1.44015,0,0,0-.16575.04906,3.62308,3.62308,0,0,0-.95138.46541,8.254,8.254,0,0,0-1.03091.87844,9.463,9.463,0,0,0-.8327,1.02231,5.52412,5.52412,0,0,0-.4316.69546,7.41606,7.41606,0,0,0-.70409,1.90473,8.49956,8.49956,0,0,0-.18828,2.05988,10.48888,10.48888,0,0,0,.29569,2.0539,12.42915,12.42915,0,0,0,.71469,1.9823A12.76041,12.76041,0,0,0,18.719,35.4751a10.753,10.753,0,0,0,2.65257,2.26474,8.06774,8.06774,0,0,0,1.65678.74518,4.20447,4.20447,0,0,0,.59137.14453C23.7052,38.64413,23.79206,38.65805,23.8789,38.672Z"/></g><path class="cls-5" d="M37.66754,32.21182a1.44039,1.44039,0,0,1-.26319-.02344l-.6455-.11524a1.72872,1.72872,0,0,1-1.39649-1.65234V17.1415a1.272,1.272,0,0,1,1.29248-1.30859,1.51909,1.51909,0,0,1,.26172.02344l.64648.11621a1.72782,1.72782,0,0,1,1.396,1.65332V30.90517A1.27049,1.27049,0,0,1,37.66754,32.21182Z"/><path class="cls-3" d="M36.65434,16.28164a1.03426,1.03426,0,0,1,.183.0166l.64642.11572a1.28385,1.28385,0,0,1,1.02695,1.21143v13.2793a.82562.82562,0,0,1-.84478.85937,1.02432,1.02432,0,0,1-.18217-.0166l-.64642-.11621a1.28308,1.28308,0,0,1-1.02695-1.21094V17.141a.82494.82494,0,0,1,.84392-.85937m0-.897h-.00006A1.73,1.73,0,0,0,34.91352,17.141v13.2793a2.18774,2.18774,0,0,0,1.76514,2.09375l.64643.11621a1.92172,1.92172,0,0,0,.34087.03076,1.73045,1.73045,0,0,0,1.74168-1.75634V17.62539a2.18823,2.18823,0,0,0-1.765-2.09424l-.64725-.11572a1.91434,1.91434,0,0,0-.34108-.03076Z"/><path class="cls-5" d="M2.7608,21.86807a1.52009,1.52009,0,0,1-.26172-.02344l-.64648-.11621a1.72678,1.72678,0,0,1-1.396-1.65235V14.9667a1.27191,1.27191,0,0,1,1.293-1.30762,1.51356,1.51356,0,0,1,.26123.02344l.64648.11621a1.72677,1.72677,0,0,1,1.396,1.65234v5.10938A1.27181,1.27181,0,0,1,2.7608,21.86807Z"/><path class="cls-3" d="M1.74953,14.10732a1.02654,1.02654,0,0,1,.18235.0166l.6464.11573a1.28316,1.28316,0,0,1,1.027,1.21142v5.10938a.82494.82494,0,0,1-.84392.85937,1.03426,1.03426,0,0,1-.183-.0166l-.6464-.11572A1.28316,1.28316,0,0,1,.90493,20.07607V14.9667a.82529.82529,0,0,1,.8446-.85938m.00017-.897h0A1.73044,1.73044,0,0,0,.008,14.9667v5.10937a2.18785,2.18785,0,0,0,1.76513,2.09424l.64707.11572a1.91431,1.91431,0,0,0,.34109.03077,1.73,1.73,0,0,0,1.74081-1.75635V15.45107A2.18785,2.18785,0,0,0,2.737,13.35684l-.64706-.11573a1.91191,1.91191,0,0,0-.34023-.03076Z"/><path class="cls-5" d="M6.76666,26.6708a1.44419,1.44419,0,0,1-.26319-.02344l-.6455-.11523a1.72874,1.72874,0,0,1-1.39649-1.65235V11.60049a1.27216,1.27216,0,0,1,1.293-1.3086,1.51876,1.51876,0,0,1,.26123.02344l.64649.11621a1.72678,1.72678,0,0,1,1.396,1.65235V25.36318A1.27071,1.27071,0,0,1,6.76666,26.6708Z"/><path class="cls-3" d="M5.75352,10.74062a1.034,1.034,0,0,1,.183.01661l.6464.11572a1.28306,1.28306,0,0,1,1.027,1.21094V25.36318a.82532.82532,0,0,1-.84445.85987,1.0283,1.0283,0,0,1-.1825-.01661l-.6464-.11621a1.2822,1.2822,0,0,1-1.027-1.21093V11.60049a.82508.82508,0,0,1,.84393-.85987m0-.897H5.75345a1.73042,1.73042,0,0,0-1.74076,1.75684V24.8793a2.18634,2.18634,0,0,0,1.76587,2.09375l.64568.11621a1.92744,1.92744,0,0,0,.3412.03076,1.73071,1.73071,0,0,0,1.74135-1.75684V12.08389A2.18774,2.18774,0,0,0,6.74165,9.99014l-.64706-.11573a1.91507,1.91507,0,0,0-.34107-.03076Z"/><path class="cls-5" d="M33.82672,35.46963a1.51768,1.51768,0,0,1-.26123-.02344L32.918,35.33a1.72405,1.72405,0,0,1-1.396-1.65137V24.81728L12.063,21.328v8.70019a1.27191,1.27191,0,0,1-1.293,1.30762,1.51892,1.51892,0,0,1-.26172-.02344l-.64649-.11621a1.72677,1.72677,0,0,1-1.396-1.65234V8.372a1.27072,1.27072,0,0,1,1.2915-1.30762,1.444,1.444,0,0,1,.26318.02344l.64551.11524a1.72868,1.72868,0,0,1,1.397,1.65234V17.7167L31.522,21.206v-8.7002a1.27191,1.27191,0,0,1,1.293-1.30762,1.51455,1.51455,0,0,1,.26123.02344l.64746.11621a1.72762,1.72762,0,0,1,1.396,1.65235V34.162A1.27192,1.27192,0,0,1,33.82672,35.46963Z"/><path class="cls-3" d="M9.75818,7.5126a1.03426,1.03426,0,0,1,.183.0166l.6464.11572a1.28307,1.28307,0,0,1,1.027,1.21094V18.0917L31.9704,21.7416V12.50625a.82667.82667,0,0,1,.84547-.85986,1.01653,1.01653,0,0,1,.18148.0166l.64706.1167a1.28245,1.28245,0,0,1,1.02695,1.21093V34.1625a.82514.82514,0,0,1-.84408.85889,1.03228,1.03228,0,0,1-.18287-.01661l-.64706-.11572a1.28332,1.28332,0,0,1-1.02695-1.21094V24.4418L11.61457,20.79238v9.23535a.82543.82543,0,0,1-.84461.85987,1.02654,1.02654,0,0,1-.18235-.0166l-.6464-.11622a1.28229,1.28229,0,0,1-1.02695-1.21142V8.372a.82493.82493,0,0,1,.84392-.85937m0-.897A1.73,1.73,0,0,0,8.01736,8.372V29.54336A2.18688,2.18688,0,0,0,9.78324,31.6376l.64567.11621a1.92635,1.92635,0,0,0,.341.03076,1.73079,1.73079,0,0,0,1.74152-1.75684V21.86416l18.562,3.32812v8.48584a2.18669,2.18669,0,0,0,1.7657,2.09375l.64731.11573a1.90874,1.90874,0,0,0,.34077.03076,1.73,1.73,0,0,0,1.741-1.75586V12.99062a2.18529,2.18529,0,0,0-1.76644-2.09375l-.64528-.1167a1.92847,1.92847,0,0,0-.34067-.03027,1.73078,1.73078,0,0,0-1.74237,1.75635v8.16357l-18.562-3.32861V8.85586a2.18775,2.18775,0,0,0-1.76515-2.09375l-.64706-.11572a1.91431,1.91431,0,0,0-.34109-.03077Z"/><path class="cls-5" d="M41.50445,28.81631a1.4874,1.4874,0,0,1-.25928-.02344l-.64843-.11719a1.72437,1.72437,0,0,1-1.395-1.65234v-5.1084a1.272,1.272,0,0,1,1.29248-1.30859,1.52006,1.52006,0,0,1,.26172.02343l.64648.11622a1.72677,1.72677,0,0,1,1.396,1.65234v5.10937A1.27267,1.27267,0,0,1,41.50445,28.81631Z"/><path class="cls-3" d="M40.49373,21.05508a1.03426,1.03426,0,0,1,.183.0166l.6464.11572a1.28307,1.28307,0,0,1,1.027,1.21094V27.5082a.8253.8253,0,0,1-.84461.85938,1.02654,1.02654,0,0,1-.18235-.0166l-.6464-.11622a1.28263,1.28263,0,0,1-1.02695-1.21093V21.91445a.82494.82494,0,0,1,.84392-.85937m0-.897h-.00006a1.73,1.73,0,0,0-1.74075,1.75635v5.10938a2.18634,2.18634,0,0,0,1.76588,2.09375l.64568.11621a1.92624,1.92624,0,0,0,.341.03076A1.73038,1.73038,0,0,0,43.247,27.5082V22.39834a2.18776,2.18776,0,0,0-1.76514-2.09375l-.64706-.11572a1.91442,1.91442,0,0,0-.3411-.03077Z"/><g class="cls-6"><path class="cls-3" d="M38.51062,26.489V30.905a.83519.83519,0,0,1-1.02694.84246l-.64641-.116a1.28272,1.28272,0,0,1-1.027-1.21082v-4.416a1.28214,1.28214,0,0,0,1.027,1.21082l.64641.116A.835.835,0,0,0,38.51062,26.489Z"/><path class="cls-3" d="M3.60513,16.14517v4.41532a.83507.83507,0,0,1-1.027.84308l-.64641-.11595a1.28286,1.28286,0,0,1-1.027-1.21146V15.66084a1.2834,1.2834,0,0,0,1.027,1.21082l.64641.116A.835.835,0,0,0,3.60513,16.14517Z"/><path class="cls-3" d="M7.6098,20.94744v4.416a.83509.83509,0,0,1-1.027.84309l-.64641-.116a1.28272,1.28272,0,0,1-1.027-1.21082v-4.4166a1.28352,1.28352,0,0,0,1.027,1.21146l.64641.116A.83566.83566,0,0,0,7.6098,20.94744Z"/><path class="cls-3" d="M11.61446,25.612v4.416a.83508.83508,0,0,1-1.02695.84309l-.64642-.116a1.28284,1.28284,0,0,1-1.027-1.21146V25.12828a1.28339,1.28339,0,0,0,1.027,1.21082l.64642.116A.83508.83508,0,0,0,11.61446,25.612Z"/><path class="cls-3" d="M34.67125,29.74669v4.416a.83518.83518,0,0,1-1.027.84244l-.64706-.116a1.28281,1.28281,0,0,1-1.02693-1.21082v-4.416a1.28279,1.28279,0,0,0,1.02693,1.21081l.64706.1166A.83588.83588,0,0,0,34.67125,29.74669Z"/><path class="cls-3" d="M42.35,23.09232v4.416a.83566.83566,0,0,1-1.02695.84309l-.64642-.11661A1.28214,1.28214,0,0,1,39.64969,27.024V22.608a1.2835,1.2835,0,0,0,1.02695,1.21145l.64642.116A.83536.83536,0,0,0,42.35,23.09232Z"/></g></g></svg>